#!OML:ASF F:\VICON\USERDATA\INSTALL\rory3\rory3.ASF
:FULLY-SPECIFIED
:DEGREES
38
root -0.9221481003632482 17.943297485178622 6.04667182965003 5.33624607286153 -2.8597982957373054 0.1222148862830501
lfemur 5.4576039448083975 -0.41472494390111375 -26.423501796392046
ltibia 28.126274108050175
lfoot 20.21182858095631 -14.33148371146789
ltoes -30.094362275682577
rfemur -44.08157286740854 1.6906241479674229 24.35468663236066
rtibia 75.01390211486067
rfoot 0.7198562023357922 -4.7783783039294185
rtoes 3.148594443418557
lowerback 1.0 -0.848090528507455 -2.4787508884456364
upperback -1.4671953372733897 -1.327099658737016 1.7747200498333884
thorax -8.90020028091546 -0.42972255872940596 3.595804832795455
lowerneck -19.369111503215855 -2.4812228834603625 -2.4286620035303543
upperneck 15.799054394341603 -3.031094747602676 2.383465777424247
head 8.194932220944182 -1.2972005482411555 0.8478760208391867
lclavicle 9.934571171985083e-16 -6.385750609376325e-15
lhumerus -36.91529685465154 -17.381622873481255 95.56712389814174
lradius 121.19459663011004
lwrist 34.9163373193343
lhand -31.316321966795666 -1.2048384956403677
lfingers 7.12502
lthumb -4.77238617476972 28.707023021682804
rclavicle 1.2043223642689985e-15 -5.73046022410303e-15
rhumerus -57.92668581620907 9.403456273937742 -102.66842786357105
rradius 119.86376252350219
rwrist -18.60390482378615
rhand -17.40660530789152 1.0
rfingers 7.12502
rthumb 9.496204669847948 6.081619061775598
39
root -0.8740800666877475 18.141177171412657 7.691241053129128 5.388070418117533 -4.374550559031505 0.20235432415336652
lfemur 8.213989923081659 -0.7447481588478506 -26.846364332254876
ltibia 25.788497108066576
lfoot 27.1322112489472 -16.813114742137586
ltoes -24.12319597590693
rfemur -43.94659672284025 2.6831406701563383 24.57885595415041
rtibia 66.06677985172331
rfoot -0.3460780678724995 -5.1479685658464085
rtoes 1.1057349547561504
lowerback 1.0 -0.7764226761686813 -2.1837521947965075
upperback -1.5527193449647376 -1.2204928394501038 1.9295057548409893
thorax -8.846406792637932 -0.4041869794654804 3.54988157379813
lowerneck -19.2936514031478 -2.429366609183419 -2.4876701982088703
upperneck 16.235083950358074 -2.9491960660416856 2.1548946900240518
head 8.241970609308293 -1.2830140077050993 0.8001205408540377
lclavicle 6.164575535010594e-16 -6.389322185865825e-15
lhumerus -37.07249119618848 -17.456165020285177 95.64399930986262
lradius 121.70347877250985
lwrist 32.35194507218984
lhand -31.323165033244056 -0.9349098183968743
lfingers 7.12502
lthumb -4.645410598006441 29.062432374029484
rclavicle 8.929907864205592e-16 -5.7121320911538404e-15
rhumerus -58.77373009914095 9.450857982423479 -102.02409145757711
rradius 121.26053515794824
rwrist -17.88309896470549
rhand -17.385165401476527 1.0
rfingers 7.12502
rthumb 9.568213528650197 6.434094044002004
40
root -0.8235623216211359 18.292955975033088 9.00964162119788 5.405119263894889 -4.511111053281837 0.5791306363248203
lfemur 10.004061174410023 -1.901069904477764 -27.805088917837974
ltibia 25.736946609508028
lfoot 30.646566550733837 -17.85658312516815
ltoes -18.916195328162647
rfemur -43.370462021778586 2.2992862320590493 24.369454138561906
rtibia 56.816254701608884
rfoot -0.545357972625736 -4.794983269601852
rtoes -2.555954985629002
lowerback 1.0 -0.8261101278038877 -2.2415581929915485
upperback -1.5178536811606524 -1.2662648011019026 1.8879987487919905
thorax -8.670892499009003 -0.4356262742710561 3.5458616199365323
lowerneck -19.359834777482305 -2.4590235216274072 -2.5277360953590415
upperneck 16.205178642276707 -2.9529363222358582 2.0422184474549896
head 8.224806488967172 -1.2929621387161272 0.7673174058319777
lclavicle 1.18321901583087e-15 -4.408299154949008e-15
lhumerus -37.33383549482513 -17.636096057795655 95.91705225219599
lradius 121.79918994097395
lwrist 30.01128155483678
lhand -31.343356898553356 -0.4402034795690708
lfingers 7.12502
lthumb -4.717476937219765 29.378757249398966
rclavicle 1.4613414445915765e-15 -3.896793207649101e-15
rhumerus -59.552878952357474 9.407052355522719 -101.32967814084573
rradius 122.40750818492518
rwrist -17.27843743486214
rhand -17.60028545022836 1.0
rfingers 7.12502
rthumb 9.638945763543248 6.990620521655573
41
root -0.7570516667855309 18.405597636938445 10.158563283605318 5.3202155725457185 -4.492241725509524 0.4354021648957389
lfemur 11.347377276265195 -2.892463163188149 -27.972041334545864
ltibia 27.424284055772503
lfoot 29.714561927139037 -18.93898984774792
ltoes -16.35155062937679
rfemur -42.308595317584164 2.156205946695111 24.663610915110358
rtibia 47.76774779871843
rfoot -0.023325900094122165 -3.818293746943121
rtoes -6.879225170315818
lowerback 1.0 -0.8909384373561146 -1.8421273754452785
upperback -1.4426241000026745 -1.3394388188143638 2.008098553859589
thorax -8.527712508345756 -0.5006610934196274 3.4638405015245493
lowerneck -19.721852306046745 -2.5899273139095813 -2.4732787434247805
upperneck 15.608681877459778 -3.131884179019095 2.003097729306466
head 8.060403290526505 -1.3801451716874529 0.7256803609284044
lclavicle -1.0768548718693533e-16 -3.965412322942977e-15
lhumerus -37.45354066761396 -17.965489407189516 96.28311310909125
lradius 121.5960410290335
lwrist 29.39170586584456
lhand -31.651676079840207 -0.21802650580096053
lfingers 7.12502
lthumb -4.993045037476741 29.577822871367943
rclavicle 1.7011367611358913e-16 -3.3798699209592523e-15
rhumerus -60.33287044794165 8.994472787375079 -100.55906330002006
rradius 123.49689570371652
rwrist -16.405551136876124
rhand -17.880470609498225 1.0
rfingers 7.12502
rthumb 9.465862335894288 6.931146152939863
42
root -0.7100981789509206 18.460826375942816 11.523575536450208 5.296820794784377 -4.900874167051024 0.6248720449266634
lfemur 11.79526891659005 -3.537733505982364 -28.31540408189828
ltibia 30.67543845775948
lfoot 27.64839161917578 -18.33497462894803
ltoes -15.268971027010966
rfemur -41.51149690948857 2.2647669229346477 24.695038268180944
rtibia 39.46739452012316
rfoot 0.9244633411612599 -2.796552117878485
rtoes -11.219942858385018
lowerback 1.0 -0.8798155076967517 -1.9102544953708684
upperback -1.3225492966442043 -1.3517818534912838 1.9513308334669284
thorax -8.554293061737196 -0.5298329462199161 3.3389446879328375
lowerneck -20.05643805641832 -2.656483126885241 -2.4327127371339263
upperneck 14.963804074627145 -3.2159549954509847 1.9777453317637714
head 7.855375933213376 -1.435807697391621 0.7037157608724878
lclavicle -2.546284625062503e-15 -6.326947041338324e-15
lhumerus -37.59231406718095 -18.37924063220154 96.65594670016327
lradius 121.15920195074068
lwrist 29.13790355788229
lhand -32.00030363409877 0.25114859240395504
lfingers 7.12502
lthumb -5.357222936285099 30.038866652832834
rclavicle -1.910052919707086e-15 -5.905828122322661e-15
rhumerus -60.809331161974995 8.567635942240763 -99.64004860374192
rradius 124.44789258590944
rwrist -15.239480974804593
rhand -17.531587206154516 1.0
rfingers 7.12502
rthumb 9.360853035795357 7.238618308607466
43
root -0.6454356472889842 18.524357780143397 14.57863195401789 5.222758615078794 -4.185281372969216 1.1362771054155678
lfemur 11.695597185562558 -4.3134834285285715 -28.803705763272237
ltibia 35.582322208178454
lfoot 26.45943445622329 -16.55750892804688
ltoes -12.320257044941084
rfemur -40.3825459567567 1.697174331959552 24.335093308725884
rtibia 32.54059332102379
rfoot 1.8904197472735886 -2.472515572776504
rtoes -14.84464469981958
lowerback 1.0 -1.0341306877677159 -2.0694364837078614
upperback -1.1312642165001316 -1.549106202214582 1.7646812566557974
thorax -8.555575287939751 -0.6204534275786773 3.281331199019838
lowerneck -20.28195139868778 -2.712823218033849 -2.4220140421169747
upperneck 14.265890354566245 -3.291931825993661 1.9559520299207072
head 7.630574508215398 -1.488948745730564 0.6870076185740674
lclavicle -3.695731929268184e-15 -8.067536295052565e-15
lhumerus -37.76022654277642 -18.779330443142122 96.96588005979882
lradius 120.33894496623853
lwrist 28.587706460117936
lhand -32.03058393404018 0.23091571046253234
lfingers 7.12502
lthumb -5.24673632617256 30.05856598756401
rclavicle -3.0348872559065128e-15 -7.779052929002136e-15
rhumerus -60.944656094429035 8.102091953012824 -98.68782079744163
rradius 125.12262384145305
rwrist -13.915191173296042
rhand -17.555503567326483 1.0
rfingers 7.12502
rthumb 9.157624654299966 7.525037525676473
44
root -0.6173612133610648 18.526303314161677 15.841058815160913 4.825186930324176 -4.062836951290882 1.2332191902625957
lfemur 10.960397385317414 -4.555529075434148 -28.61088320944407
ltibia 41.809569751727494
lfoot 25.746768915181274 -15.428345353695654
ltoes -7.470999799971222
rfemur -39.15117574121556 1.6192454445667117 24.50277535856273
rtibia 28.129900219028038
rfoot 2.5609459834715333 -3.0486056659360523
rtoes -17.728154552788055
lowerback 1.0 -1.0793509913216717 -2.0092476133806554
upperback -0.8951191043558462 -1.563899609028529 1.6637044465976651
thorax -8.480314982539083 -0.6251180349419572 3.1476054513254605
lowerneck -20.239461541027996 -2.7561597508527673 -2.4641781399577267
upperneck 13.589000423308779 -3.3231041466763194 1.9457882195871306
head 7.399379594012942 -1.527060672022512 0.6827387049410039
lclavicle -3.731893784196934e-15 -8.657780963822623e-15
lhumerus -37.95518485400252 -19.018173118091077 97.17676941891922
lradius 119.06126556256585
lwrist 28.443982625718757
lhand -32.19004991211943 0.5420532285647284
lfingers 7.12502
lthumb -5.474901114022142 30.450612364972987
rclavicle -3.782263851101466e-15 -8.884986633987937e-15
rhumerus -60.81588090583867 7.579478714549506 -97.8157081284586
rradius 125.44131100247529
rwrist -12.626734816976803
rhand -17.530333848281423 1.0
rfingers 7.12502
rthumb 9.093308471486967 8.226923354189385
45
root -0.6146356260750365 18.466506925024074 16.71024546095553 4.377658480207704 -4.530035718299535 1.248364186181815
lfemur 9.686136455680302 -4.273432553005801 -28.094892347018284
ltibia 49.00228633877657
lfoot 24.467846868087197 -15.503317436303577
ltoes -2.9124896759094936
rfemur -37.740218311004035 1.7763007463387999 24.93994909160271
rtibia 26.318495644108815
rfoot 2.9493055052765147 -3.916544233350417
rtoes -20.45430520695217
lowerback 1.0 -0.9693897241330439 -1.9422636218152132
upperback -0.5369721986876712 -1.3697333385551405 1.5815154097978734
thorax -8.469412451873886 -0.5338574230658124 2.9170233949380493
lowerneck -20.109032903875946 -2.7944564602976802 -2.5257244845946993
upperneck 12.960516170022856 -3.3235661074261227 1.8795745864395026
head 7.143048313671918 -1.5558201422213234 0.6543189397168556
lclavicle -1.688404609766793e-15 -5.994498490691671e-15
lhumerus -38.19371532233616 -19.01777913288526 97.31416859981486
lradius 117.19401222102023
lwrist 28.5004373559059
lhand -32.27032313984976 0.712243401878196
lfingers 7.12502
lthumb -5.375850720433378 30.689496206223794
rclavicle -2.153804734010296e-15 -6.411590970590148e-15
rhumerus -60.466784720455564 7.002043778738461 -97.02267986508016
rradius 125.50846020117638
rwrist -11.53277703401415
rhand -17.71631151465404 1.0
rfingers 7.12502
rthumb 8.75714925265551 8.179237885286257
